<svg width="435" height="64" viewBox="0 0 435 64" fill="none" xmlns="http://www.w3.org/2000/svg">
    <style>
        .laravel { fill: #1B1B18 } @media (prefers-color-scheme:dark) { .laravel { fill: #fff } }
        .echo { fill: #868682 } @media (prefers-color-scheme:dark) { .echo { fill: #A1A09A } }
    </style>
<rect width="64" height="64" fill="#FF95A8"/>
<path fill-rule="evenodd" clip-rule="evenodd" d="M50.2474 43.4024C45.7323 50.9622 33.9025 52.2093 23.8246 46.1881C13.7469 40.1668 9.23757 29.1573 13.7526 21.5976C18.2677 14.0379 30.0975 12.7907 40.1754 18.8119C50.2531 24.8332 54.7624 35.8427 50.2474 43.4024ZM23.9835 45.6634C18.7734 42.4872 16.4869 36.7106 18.8776 32.7079C21.2856 28.676 27.5268 27.9702 32.8176 31.1314C38.1084 34.2925 40.4453 40.1236 38.0373 44.1555C35.6467 48.158 29.4782 48.8827 24.2123 45.8C31.4937 50.087 40.0281 49.1129 43.3218 43.5982C46.6329 38.0544 43.394 30.0214 36.0877 25.656C28.7813 21.2906 20.1741 22.2458 16.8631 27.7896C13.5692 33.3046 16.7573 41.2829 23.9835 45.6634ZM34.3854 44.2848C32.6195 47.2415 28.0784 47.7805 24.2426 45.4886C20.4067 43.1968 18.7288 38.942 20.4947 35.9853C22.2606 33.0286 26.8017 32.4897 30.6375 34.7815C34.4734 37.0733 36.1514 41.3281 34.3854 44.2848Z" fill="#FDFDFC"/>
<path class="laravel" d="M103.659 7.625H96V55.5535H118.046V48.5012H103.659V7.625Z"/>
<path class="laravel" d="M145.087 27.9603C144.109 26.3627 142.722 25.1079 140.924 24.1946C139.126 23.2817 137.316 22.8251 135.496 22.8251C133.141 22.8251 130.988 23.2703 129.035 24.1602C127.08 25.0501 125.404 26.2723 124.006 27.8235C122.607 29.3757 121.519 31.1675 120.742 33.1978C119.964 35.2297 119.576 37.3643 119.576 39.6003C119.576 41.8831 119.964 44.0283 120.742 46.0362C121.519 48.0455 122.607 49.8258 124.006 51.377C125.404 52.9292 127.08 54.15 129.035 55.0399C130.988 55.9298 133.141 56.375 135.496 56.375C137.316 56.375 139.126 55.9183 140.924 55.0059C142.722 54.0936 144.11 52.8383 145.087 51.2402V55.5539H152.346V23.6471H145.087V27.9603ZM144.421 43.5027C143.977 44.7355 143.355 45.8081 142.556 46.7209C141.756 47.6342 140.791 48.3644 139.659 48.912C138.526 49.46 137.271 49.7335 135.895 49.7335C134.518 49.7335 133.275 49.46 132.165 48.912C131.054 48.364 130.1 47.6342 129.301 46.7209C128.502 45.8081 127.891 44.7355 127.469 43.5027C127.047 42.2705 126.837 40.9693 126.837 39.6003C126.837 38.2307 127.047 36.9296 127.469 35.6973C127.89 34.465 128.502 33.3929 129.301 32.4796C130.1 31.5672 131.055 30.8361 132.165 30.2886C133.275 29.7406 134.518 29.467 135.895 29.467C137.271 29.467 138.526 29.7406 139.659 30.2886C140.791 30.8366 141.756 31.5672 142.556 32.4796C143.355 33.3929 143.977 34.465 144.421 35.6973C144.864 36.9296 145.087 38.2307 145.087 39.6003C145.087 40.9693 144.864 42.2705 144.421 43.5027Z"/>
<path class="laravel" d="M204.099 27.9603C203.121 26.3627 201.734 25.1079 199.936 24.1946C198.138 23.2817 196.328 22.8251 194.508 22.8251C192.153 22.8251 190.001 23.2703 188.047 24.1602C186.093 25.0501 184.417 26.2723 183.018 27.8235C181.619 29.3757 180.531 31.1675 179.754 33.1978C178.977 35.2297 178.589 37.3643 178.589 39.6003C178.589 41.8831 178.977 44.0283 179.754 46.0362C180.531 48.0455 181.619 49.8258 183.018 51.377C184.417 52.9292 186.092 54.15 188.047 55.0399C190 55.9298 192.153 56.375 194.508 56.375C196.328 56.375 198.138 55.9183 199.936 55.0059C201.734 54.0936 203.122 52.8383 204.099 51.2402V55.5539H211.359V23.6471H204.099V27.9603ZM203.433 43.5027C202.988 44.7355 202.367 45.8081 201.568 46.7209C200.768 47.6342 199.803 48.3644 198.67 48.912C197.538 49.46 196.283 49.7335 194.907 49.7335C193.53 49.7335 192.286 49.46 191.177 48.912C190.066 48.364 189.112 47.6342 188.313 46.7209C187.513 45.8081 186.903 44.7355 186.481 43.5027C186.058 42.2705 185.849 40.9693 185.849 39.6003C185.849 38.2307 186.058 36.9296 186.481 35.6973C186.902 34.465 187.513 33.3929 188.313 32.4796C189.112 31.5672 190.067 30.8361 191.177 30.2886C192.286 29.7406 193.53 29.467 194.907 29.467C196.283 29.467 197.538 29.7406 198.67 30.2886C199.803 30.8366 200.768 31.5672 201.568 32.4796C202.367 33.3929 202.988 34.465 203.433 35.6973C203.876 36.9296 204.099 38.2307 204.099 39.6003C204.099 40.9693 203.876 42.2705 203.433 43.5027Z"/>
<path class="laravel" d="M291 7.625H283.741V55.5535H291V7.625Z"/>
<path class="laravel" d="M158.075 55.5535H165.335V30.9901H177.79V23.6471H158.075V55.5535Z"/>
<path class="laravel" d="M240.465 23.6471L231.34 48.0804L222.216 23.6471H214.862L226.778 55.5535H235.902L247.818 23.6471H240.465Z"/>
<path class="laravel" d="M263.652 22.8265C254.762 22.8265 247.725 30.3369 247.725 39.6007C247.725 49.8416 254.536 56.375 264.582 56.375C270.205 56.375 273.795 54.1648 278.181 49.3514L273.276 45.4504C273.273 45.4542 269.574 50.4469 264.051 50.4469C257.631 50.4469 254.928 45.1262 254.928 42.3733H279.013C280.278 31.8326 273.537 22.8265 263.652 22.8265ZM254.947 36.8278C255.003 36.2138 255.839 28.7541 263.594 28.7541C271.349 28.7541 272.291 36.2128 272.345 36.8278H254.947Z"/>
<path class="echo" d="M418.69 56.315C415.54 56.315 412.768 55.58 410.374 54.11C407.98 52.6399 406.111 50.645 404.767 48.125C403.465 45.563 402.814 42.686 402.814 39.494C402.814 36.26 403.486 33.4039 404.83 30.926C406.174 28.448 408.022 26.4949 410.374 25.0669C412.768 23.6389 415.54 22.9249 418.69 22.9249C421.882 22.9249 424.654 23.6389 427.006 25.0669C429.4 26.4949 431.248 28.448 432.55 30.926C433.894 33.4039 434.566 36.26 434.566 39.494C434.566 42.686 433.894 45.563 432.55 48.125C431.248 50.645 429.4 52.6399 427.006 54.11C424.654 55.58 421.882 56.315 418.69 56.315ZM418.69 52.031C420.874 52.031 422.764 51.506 424.36 50.456C425.956 49.364 427.195 47.873 428.077 45.983C428.959 44.093 429.4 41.909 429.4 39.431C429.4 35.735 428.413 32.774 426.439 30.548C424.507 28.322 421.924 27.209 418.69 27.209C415.498 27.209 412.915 28.322 410.941 30.548C408.967 32.774 407.98 35.735 407.98 39.431C407.98 41.909 408.421 44.093 409.303 45.983C410.185 47.873 411.424 49.364 413.02 50.456C414.658 51.506 416.548 52.031 418.69 52.031Z"/>
<path class="echo" d="M369.62 55.685V7.68506H374.66V55.685H369.62ZM392.615 55.685V34.643C392.615 32.207 392.006 30.3799 390.788 29.1619C389.57 27.944 387.764 27.335 385.37 27.335C383.27 27.335 381.401 27.797 379.763 28.721C378.167 29.645 376.907 30.926 375.983 32.564C375.101 34.202 374.66 36.113 374.66 38.297L373.841 30.674C374.933 28.2799 376.592 26.39 378.818 25.004C381.086 23.618 383.648 22.925 386.504 22.925C389.864 22.925 392.552 23.891 394.568 25.823C396.626 27.713 397.655 30.212 397.655 33.32V55.685H392.615Z"/>
<path class="echo" d="M350.754 56.315C347.814 56.315 345.189 55.601 342.879 54.173C340.611 52.7029 338.805 50.708 337.461 48.188C336.159 45.6259 335.508 42.728 335.508 39.494C335.508 36.26 336.159 33.4039 337.461 30.926C338.805 28.448 340.611 26.4949 342.879 25.0669C345.189 23.6389 347.793 22.9249 350.691 22.9249C353.085 22.9249 355.227 23.3869 357.117 24.3109C359.049 25.2349 360.624 26.5579 361.842 28.2799C363.102 29.9599 363.9 31.934 364.236 34.202H359.574C359.154 32.1439 358.188 30.4639 356.676 29.1619C355.164 27.8599 353.211 27.209 350.817 27.209C348.759 27.209 346.974 27.7129 345.462 28.7209C343.95 29.729 342.774 31.157 341.934 33.005C341.094 34.853 340.674 37.016 340.674 39.494C340.674 41.972 341.094 44.156 341.934 46.046C342.774 47.936 343.95 49.406 345.462 50.456C347.016 51.506 348.822 52.031 350.88 52.031C353.19 52.031 355.122 51.401 356.676 50.141C358.23 48.839 359.217 47.159 359.637 45.101H364.299C363.921 47.327 363.081 49.301 361.779 51.023C360.519 52.703 358.944 54.005 357.054 54.929C355.164 55.853 353.064 56.315 350.754 56.315Z"/>
<path class="echo" d="M303 55.685V7.68506H308.166V55.685H303ZM305.646 55.685V51.149H333.366V55.685H305.646ZM305.646 33.3279V28.792H331.098V33.3279H305.646ZM305.646 12.2211V7.68506H332.862V12.2211H305.646Z"/>
</svg>
